<?xml version="1.0" standalone="no"?>
<!DOCTYPE svg PUBLIC "-//W3C//DTD SVG 20010904//EN"
 "http://www.w3.org/TR/2001/REC-SVG-20010904/DTD/svg10.dtd">
<svg version="1.0" xmlns="http://www.w3.org/2000/svg"
 width="520.000000pt" height="520.000000pt" viewBox="0 0 520.000000 520.000000"
 preserveAspectRatio="xMidYMid meet">
<metadata>
Created by potrace 1.11, written by Peter Selinger 2001-2013
</metadata>
<g transform="translate(0.000000,520.000000) scale(0.100000,-0.100000)"
fill="#000000" stroke="none">
<path d="M135 4816 c-37 -17 -80 -62 -94 -99 -8 -20 -11 -665 -11 -2116 0
-2266 -3 -2129 52 -2181 56 -53 -96 -50 2508 -50 2615 0 2455 -3 2507 52 54
57 51 -72 51 2177 0 1389 -4 2095 -11 2115 -13 41 -54 85 -94 102 -48 20
-4863 20 -4908 0z m4795 -461 l0 -255 -2340 0 -2340 0 0 255 0 255 2340 0
2340 0 0 -255z m0 -2120 l0 -1645 -2340 0 -2340 0 0 1645 0 1645 2340 0 2340
0 0 -1645z"/>
<path d="M417 4453 c-69 -28 -73 -124 -7 -158 40 -21 83 -12 110 22 38 48 19
115 -40 140 -19 8 -35 7 -63 -4z"/>
<path d="M671 4454 c-40 -17 -63 -65 -49 -105 27 -78 120 -89 161 -19 43 72
-34 157 -112 124z"/>
<path d="M896 4429 c-30 -35 -32 -58 -11 -99 29 -56 113 -60 149 -8 64 91 -66
193 -138 107z"/>
<path d="M2612 3182 c-8 -15 -65 -216 -77 -268 -2 -10 -81 -296 -176 -634
-185 -662 -197 -723 -162 -790 22 -42 65 -68 124 -76 52 -7 41 -7 106 -5 l52
1 16 58 c9 31 22 80 30 107 15 49 153 546 160 575 2 8 20 74 40 145 20 72 49
177 65 235 87 316 100 361 104 368 19 32 26 171 10 210 -26 65 -68 84 -191 88
-80 3 -94 1 -101 -14z"/>
<path d="M3197 2769 c-82 -13 -127 -77 -130 -183 0 -36 1 -67 3 -69 4 -3 142
-75 454 -237 37 -19 69 -39 70 -44 0 -4 -96 -57 -214 -118 -118 -60 -228 -121
-244 -136 -86 -81 -80 -216 14 -280 18 -12 50 -27 71 -33 37 -12 41 -10 176
68 76 45 154 90 173 101 164 94 290 169 317 189 82 63 102 236 41 359 -18 37
-41 52 -280 190 -349 200 -368 207 -451 193z"/>
<path d="M1522 2592 c-167 -97 -316 -190 -332 -205 -69 -69 -77 -265 -16 -360
14 -21 162 -113 315 -195 25 -14 72 -41 105 -61 209 -128 313 -145 388 -65 33
36 50 95 46 158 l-3 50 -150 78 c-82 44 -203 106 -269 140 -84 43 -114 63
-105 69 8 5 95 50 194 100 234 119 270 142 302 196 22 39 25 52 20 105 -4 51
-11 66 -39 95 -33 35 -105 73 -136 72 -9 0 -154 -80 -320 -177z"/>
</g>
</svg>
